<svg aria-hidden="true" style="position: absolute; width: 0; height: 0; overflow: hidden;" version="1.1" xmlns="http://www.w3.org/2000/svg" xmlns:xlink="http://www.w3.org/1999/xlink">
<defs>
<symbol id="icon-arrow-thin-left" viewBox="0 0 20 20">
<path d="M3.828 9l6.071-6.071-1.414-1.414-8.485 8.485 8.485 8.485 1.414-1.414-6.071-6.071h16.172v-2h-16.172z"></path>
</symbol>
<symbol id="icon-arrow-thin-right" viewBox="0 0 20 20">
<path d="M16.172 9l-6.071-6.071 1.414-1.414 8.485 8.485-8.485 8.485-1.414-1.414 6.071-6.071h-16.172v-2z"></path>
</symbol>
<symbol id="icon-book-reference" viewBox="0 0 20 20">
<path d="M6 4h-1c-0.552 0-1-0.448-1-1s0.448-1 1-1v0h11v-1c0-0.552-0.448-1-1-1v0h-11c-1.105 0-2 0.895-2 2v0 16c0 1.1 0.9 2 2 2h12c1.105 0 2-0.895 2-2v0-13c0-0.552-0.448-1-1-1v0h-7v8l-2-2-2 2v-8z"></path>
</symbol>
<symbol id="icon-calendar" viewBox="0 0 20 20">
<path d="M1 4c0-1.1 0.9-2 2-2h14c1.105 0 2 0.895 2 2v0 14c0 1.105-0.895 2-2 2v0h-14c-1.105 0-2-0.895-2-2v0-14zM3 6v12h14v-12h-14zM5 0h2v2h-2v-2zM13 0h2v2h-2v-2zM5 9h2v2h-2v-2zM5 13h2v2h-2v-2zM9 9h2v2h-2v-2zM9 13h2v2h-2v-2zM13 9h2v2h-2v-2zM13 13h2v2h-2v-2z"></path>
</symbol>
<symbol id="icon-close" viewBox="0 0 20 20">
<path d="M10 8.586l-7.071-7.071-1.414 1.414 7.071 7.071-7.071 7.071 1.414 1.414 7.071-7.071 7.071 7.071 1.414-1.414-7.071-7.071 7.071-7.071-1.414-1.414-7.071 7.071z"></path>
</symbol>
<symbol id="icon-folder" viewBox="0 0 20 20">
<path d="M0 4c0-1.1 0.9-2 2-2h7l2 2h7c1.105 0 2 0.895 2 2v0 10c0 1.105-0.895 2-2 2v0h-16c-1.105 0-2-0.895-2-2v0-12z"></path>
</symbol>
<symbol id="icon-heart" viewBox="0 0 20 20">
<path d="M10 3.22l-0.61-0.6c-0.983-0.931-2.314-1.504-3.779-1.504-3.038 0-5.5 2.462-5.5 5.5 0 1.462 0.571 2.791 1.501 3.776l-0.002-0.003 8.39 8.39 8.39-8.4c0.928-0.983 1.499-2.312 1.499-3.774 0-3.038-2.462-5.5-5.5-5.5-1.465 0-2.796 0.573-3.782 1.506l0.003-0.002-0.61 0.61z"></path>
</symbol>
<symbol id="icon-home" viewBox="0 0 20 20">
<path d="M8 20h-5v-10h-3l10-10 10 10h-3v10h-5v-6h-4v6z"></path>
</symbol>
<symbol id="icon-hour-glass" viewBox="0 0 20 20">
<path d="M3 18c0-0.002 0-0.004 0-0.005 0-2.776 1.616-5.174 3.958-6.306l0.042-0.018v-3.34c-2.384-1.15-4-3.549-4-6.325 0-0.002 0-0.004 0-0.006v0h-2v-2h18v2h-2c0 0.002 0 0.004 0 0.005 0 2.776-1.616 5.174-3.958 6.306l-0.042 0.018v3.34c2.384 1.15 4 3.549 4 6.325 0 0.002 0 0.004 0 0.006v-0h2v2h-18v-2h2zM5 2c0 0 0 0.001 0 0.001 0 2.407 1.701 4.417 3.967 4.893l0.033 0.006v3.1h2v-3.1c2.299-0.481 4-2.492 4-4.899 0-0 0-0.001 0-0.001v0h-10z"></path>
</symbol>
<symbol id="icon-list" viewBox="0 0 20 20">
<path d="M1 4h2v2h-2v-2zM5 4h14v2h-14v-2zM1 9h2v2h-2v-2zM5 9h14v2h-14v-2zM1 14h2v2h-2v-2zM5 14h14v2h-14v-2z"></path>
</symbol>
<symbol id="icon-menu" viewBox="0 0 20 20">
<path d="M0 3h20v2h-20v-2zM0 9h20v2h-20v-2zM0 15h20v2h-20v-2z"></path>
</symbol>
<symbol id="icon-css3" viewBox="0 0 32 32">
<path fill="#1572b6" style="fill: var(--color1, #1572b6)" d="M2 0h28l-2.547 28.751-11.484 3.249-11.42-3.251zM24.787 5.884l-17.573-0.004 0.284 3.496 13.5 0.003-0.34 3.621h-8.853l0.32 3.431h8.243l-0.488 4.697-3.88 1.072-3.941-1.080-0.251-2.813h-3.48l0.387 5.14 7.287 2.271 7.164-2.040z"></path>
</symbol>
<symbol id="icon-discord" viewBox="0 0 32 32">
<path fill="#7289da" style="fill: var(--color2, #7289da)" d="M26.963 0c1.875 0 3.387 1.516 3.476 3.3v28.7l-3.569-3.031-1.96-1.784-2.139-1.864 0.893 2.94h-18.717c-1.869 0-3.387-1.42-3.387-3.301v-21.653c0-1.784 1.52-3.303 3.393-3.303h22zM18.805 7.577h-0.040l-0.269 0.267c2.764 0.8 4.101 2.049 4.101 2.049-1.781-0.891-3.387-1.336-4.992-1.516-1.16-0.18-2.32-0.085-3.3 0h-0.267c-0.627 0-1.96 0.267-3.747 0.98-0.623 0.271-0.98 0.448-0.98 0.448s1.336-1.336 4.28-2.049l-0.18-0.18c0 0-2.229-0.085-4.636 1.693 0 0-2.407 4.192-2.407 9.36 0 0 1.333 2.32 4.991 2.408 0 0 0.533-0.711 1.073-1.336-2.053-0.624-2.853-1.872-2.853-1.872s0.179 0.088 0.447 0.267h0.080c0.040 0 0.059 0.020 0.080 0.040v0.008c0.021 0.021 0.040 0.040 0.080 0.040 0.44 0.181 0.88 0.36 1.24 0.533 0.621 0.269 1.42 0.537 2.4 0.715 1.24 0.18 2.661 0.267 4.28 0 0.8-0.18 1.6-0.356 2.4-0.713 0.52-0.267 1.16-0.533 1.863-0.983 0 0-0.8 1.248-2.94 1.872 0.44 0.621 1.060 1.333 1.060 1.333 3.659-0.080 5.080-2.4 5.16-2.301 0-5.16-2.42-9.36-2.42-9.36-2.18-1.619-4.22-1.68-4.58-1.68zM19.029 13.461c0.937 0 1.693 0.8 1.693 1.78 0 0.987-0.76 1.787-1.693 1.787s-1.693-0.8-1.693-1.779c0.003-0.987 0.764-1.784 1.693-1.788zM12.972 13.461c0.933 0 1.688 0.8 1.688 1.78 0 0.987-0.76 1.787-1.693 1.787s-1.693-0.8-1.693-1.779c0-0.987 0.76-1.784 1.699-1.788z"></path>
</symbol>
<symbol id="icon-freecodecamp" viewBox="0 0 32 32">
<path fill="#006400" style="fill: var(--color3, #006400)" d="M31.956 16.423c0 3.333-1.139 6.291-3.464 8.908-0.847 0.972-1.524 1.435-1.984 1.435-0.161 0-0.341-0.044-0.461-0.167-0.123-0.128-0.2-0.297-0.2-0.467 0-0.251 0.3-0.633 0.899-1.185 2.419-2.315 3.636-5.193 3.636-8.608 0-3.795-1.257-6.869-3.755-9.248-0.499-0.456-0.76-0.836-0.76-1.136 0-0.16 0.081-0.341 0.219-0.46 0.14-0.12 0.3-0.199 0.461-0.199 0.557 0 1.399 0.679 2.456 2.036 1.997 2.537 2.997 5.593 2.997 9.128zM0 15.576c0-3.332 1.139-6.292 3.464-8.908 0.847-0.972 1.524-1.435 1.987-1.435 0.159 0 0.339 0.044 0.459 0.167 0.12 0.127 0.2 0.252 0.2 0.419 0 0.251-0.3 0.636-0.899 1.224-2.375 2.325-3.615 5.193-3.615 8.616 0 3.796 1.268 6.877 3.761 9.247 0.507 0.459 0.759 0.844 0.759 1.139 0 0.169-0.081 0.341-0.213 0.464-0.132 0.125-0.3 0.213-0.469 0.213-0.581 0-1.377-0.68-2.437-2.024-2.017-2.492-2.996-5.533-2.996-9.121zM23.599 24.735h-14.645c-0.467 0-0.891-0.383-0.891-0.888 0-0.511 0.38-0.891 0.891-0.891h14.645c0.464 0 0.891 0.38 0.891 0.891-0.008 0.513-0.383 0.888-0.891 0.888zM15.599 12.843c0.263-0.033 0.459 0.82 0.481 0.999 0.061 0.471-0.095 0.924-0.308 1.337-0.796 1.553-2.637 2.805-2.149 4.767 0.221 0.847 0.659 1.435 2.019 2.159-0.46 0.159-1.099-0.148-1.459-0.401-1.599-1.088-2.617-2.875-2.517-4.825 0.040-0.619 0.16-1.227 0.319-1.824 0.5-1.708 1.519-3.201 2.117-4.863 0.3-0.799 0.52-1.765 0.281-2.604-0.12-0.412-0.34-0.799-0.62-1.132-0.081-0.101-0.539-0.62-0.719-0.56 0.8-0.3 1.519-0.021 2.216 0.399 0.539 0.32 0.96 0.78 1.279 1.3 0.599 0.959 0.839 2.056 0.959 3.175 0.041 0.46-0.020 1.579 0.52 1.8 0.559 0.239 0.999-0.7 1.119-1.080 0.26-0.86-0.080-1.679-0.419-2.477 0.081 0.161 0.38 0.34 0.519 0.461l0.48 0.459c0.58 0.599 0.939 1.339 1.179 2.139 0.219 0.719 0.32 1.457 0.36 2.177 0.099 1.497-0.24 3.037-0.839 4.415-0.26 0.617-0.599 1.197-1.039 1.697-0.425 0.497-0.997 0.817-1.457 1.276 1.077-1.079 1.651-2.836 1.497-4.175-0.080-0.737-0.319-1.417-0.879-2.096 0 0 0.060 0.477 0.116 0.777 0.1 0.66-0.34 1.36-0.859 1.279-0.38-0.039-0.181-0.857-0.14-1.117 0.14-0.779-0.040-1.539-0.325-2.257-0.279-0.679-0.8-1.219-1.597-1.097z"></path>
</symbol>
<symbol id="icon-git" viewBox="0 0 32 32">
<path fill="#f05032" style="fill: var(--color4, #f05032)" d="M31.395 14.573l-13.972-13.971c-0.805-0.804-2.109-0.804-2.917 0l-2.895 2.9 3.68 3.68c0.86-0.287 1.839-0.093 2.519 0.588 0.688 0.687 0.877 1.677 0.584 2.533l3.544 3.547c0.86-0.297 1.849-0.104 2.533 0.58 0.961 0.96 0.961 2.512 0 3.472-0.959 0.959-2.508 0.959-3.467 0-0.719-0.721-0.899-1.783-0.539-2.661l-3.319-3.301v8.7c0.235 0.115 0.456 0.271 0.651 0.464 0.951 0.961 0.951 2.511 0 3.467-0.959 0.961-2.519 0.961-3.479 0-0.959-0.959-0.959-2.505 0-3.464 0.243-0.24 0.516-0.421 0.807-0.541v-8.785c-0.289-0.121-0.565-0.296-0.8-0.535-0.727-0.727-0.901-1.789-0.528-2.679l-3.616-3.633-9.581 9.575c-0.8 0.807-0.8 2.112 0 2.919l13.973 13.969c0.805 0.805 2.109 0.805 2.915 0l13.907-13.907c0.807-0.804 0.807-2.109 0-2.916z"></path>
</symbol>
<symbol id="icon-github" viewBox="0 0 32 32">
<path d="M16 0.396c-8.84 0-16 7.164-16 16 0 7.071 4.584 13.067 10.94 15.18 0.8 0.151 1.093-0.344 1.093-0.769 0-0.38-0.013-1.387-0.020-2.72-4.451 0.965-5.389-2.147-5.389-2.147-0.728-1.847-1.78-2.34-1.78-2.34-1.449-0.992 0.112-0.972 0.112-0.972 1.607 0.112 2.451 1.648 2.451 1.648 1.427 2.447 3.745 1.74 4.66 1.331 0.144-1.035 0.556-1.74 1.013-2.14-3.553-0.4-7.288-1.776-7.288-7.907 0-1.747 0.62-3.173 1.647-4.293-0.18-0.404-0.72-2.031 0.14-4.235 0 0 1.34-0.429 4.4 1.64 1.28-0.356 2.64-0.532 4-0.54 1.36 0.008 2.72 0.184 4 0.54 3.040-2.069 4.38-1.64 4.38-1.64 0.86 2.204 0.32 3.831 0.16 4.235 1.020 1.12 1.64 2.547 1.64 4.293 0 6.147-3.74 7.5-7.3 7.893 0.56 0.48 1.080 1.461 1.080 2.96 0 2.141-0.020 3.861-0.020 4.381 0 0.42 0.28 0.92 1.1 0.76 6.401-2.099 10.981-8.099 10.981-15.159 0-8.836-7.164-16-16-16z"></path>
</symbol>
<symbol id="icon-gmail" viewBox="0 0 32 32">
<path fill="#d14836" style="fill: var(--color5, #d14836)" d="M32 6v20c0 1.133-0.867 2-2 2h-2v-18.151l-12 8.617-12-8.617v18.151h-2c-1.135 0-2-0.867-2-2v-20c0-0.567 0.216-1.067 0.575-1.424 0.359-0.363 0.86-0.576 1.425-0.576h0.667l13.333 9.667 13.333-9.667h0.667c0.567 0 1.067 0.216 1.425 0.576 0.36 0.357 0.575 0.857 0.575 1.424z"></path>
</symbol>
<symbol id="icon-html5" viewBox="0 0 32 32">
<path fill="#e34f26" style="fill: var(--color6, #e34f26)" d="M2 0h28l-2.547 28.751-11.484 3.249-11.419-3.251zM11.375 13l-0.309-3.624 13.412 0.004 0.307-3.496-17.568-0.004 0.931 10.68h12.168l-0.435 4.568-3.88 1.072-3.94-1.080-0.251-2.813h-3.479l0.44 5.561 7.229 1.933 7.172-1.924 0.992-10.876z"></path>
</symbol>
<symbol id="icon-instagram" viewBox="0 0 32 32">
<path fill="#e4405f" style="fill: var(--color7, #e4405f)" d="M16 0c-4.347 0-4.889 0.020-6.596 0.096-1.704 0.080-2.864 0.348-3.884 0.744-1.052 0.408-1.945 0.956-2.835 1.845s-1.439 1.781-1.845 2.835c-0.396 1.020-0.665 2.18-0.744 3.884-0.080 1.707-0.096 2.249-0.096 6.596s0.020 4.889 0.096 6.596c0.080 1.703 0.348 2.864 0.744 3.884 0.408 1.051 0.956 1.945 1.845 2.835 0.889 0.888 1.781 1.439 2.835 1.845 1.021 0.395 2.181 0.665 3.884 0.744 1.707 0.080 2.249 0.096 6.596 0.096s4.889-0.020 6.596-0.096c1.703-0.080 2.864-0.349 3.884-0.744 1.051-0.408 1.945-0.957 2.835-1.845 0.888-0.889 1.439-1.78 1.845-2.835 0.395-1.020 0.665-2.181 0.744-3.884 0.080-1.707 0.096-2.249 0.096-6.596s-0.020-4.889-0.096-6.596c-0.080-1.703-0.349-2.865-0.744-3.884-0.408-1.052-0.957-1.945-1.845-2.835-0.889-0.889-1.78-1.439-2.835-1.845-1.020-0.396-2.181-0.665-3.884-0.744-1.707-0.080-2.249-0.096-6.596-0.096zM16 2.88c4.271 0 4.78 0.021 6.467 0.095 1.56 0.073 2.407 0.332 2.969 0.553 0.749 0.289 1.28 0.636 1.843 1.195 0.559 0.56 0.905 1.092 1.195 1.841 0.219 0.563 0.48 1.409 0.551 2.969 0.076 1.688 0.093 2.195 0.093 6.467s-0.020 4.78-0.099 6.467c-0.081 1.56-0.341 2.407-0.561 2.969-0.299 0.749-0.639 1.28-1.199 1.843-0.559 0.559-1.099 0.905-1.84 1.195-0.56 0.219-1.42 0.48-2.98 0.551-1.699 0.076-2.199 0.093-6.479 0.093-4.281 0-4.781-0.020-6.479-0.099-1.561-0.081-2.421-0.341-2.981-0.561-0.759-0.299-1.28-0.639-1.839-1.199-0.561-0.559-0.92-1.099-1.2-1.84-0.22-0.56-0.479-1.42-0.56-2.98-0.060-1.68-0.081-2.199-0.081-6.459 0-4.261 0.021-4.781 0.081-6.481 0.081-1.56 0.34-2.419 0.56-2.979 0.28-0.76 0.639-1.28 1.2-1.841 0.559-0.559 1.080-0.919 1.839-1.197 0.56-0.221 1.401-0.481 2.961-0.561 1.7-0.060 2.2-0.080 6.479-0.080zM16 7.784c-4.54 0-8.216 3.68-8.216 8.216 0 4.54 3.68 8.216 8.216 8.216 4.54 0 8.216-3.68 8.216-8.216 0-4.54-3.68-8.216-8.216-8.216zM16 21.333c-2.947 0-5.333-2.387-5.333-5.333s2.387-5.333 5.333-5.333 5.333 2.387 5.333 5.333-2.387 5.333-5.333 5.333zM26.461 7.46c0 1.060-0.861 1.92-1.92 1.92-1.060 0-1.92-0.861-1.92-1.92s0.861-1.919 1.92-1.919c1.057-0.001 1.92 0.86 1.92 1.919z"></path>
</symbol>
<symbol id="icon-javascript" viewBox="0 0 32 32">
<path fill="#f7df1e" style="fill: var(--color8, #f7df1e)" d="M0 0h32v32h-32zM29.379 24.368c-0.233-1.46-1.184-2.687-4.004-3.831-0.981-0.46-2.072-0.78-2.396-1.52-0.121-0.44-0.14-0.68-0.061-0.94 0.2-0.861 1.22-1.12 2.020-0.88 0.52 0.16 1 0.56 1.301 1.2 1.379-0.901 1.379-0.901 2.34-1.5-0.36-0.56-0.539-0.801-0.781-1.040-0.84-0.94-1.959-1.42-3.779-1.379l-0.94 0.119c-0.901 0.22-1.76 0.7-2.28 1.34-1.52 1.721-1.081 4.721 0.759 5.961 1.82 1.36 4.481 1.659 4.821 2.94 0.32 1.56-1.16 2.060-2.621 1.88-1.081-0.24-1.68-0.781-2.34-1.781l-2.44 1.401c0.28 0.64 0.6 0.919 1.080 1.479 2.32 2.341 8.12 2.221 9.161-1.339 0.039-0.12 0.32-0.94 0.099-2.2zM17.401 14.708h-2.997c0 2.584-0.012 5.152-0.012 7.74 0 1.643 0.084 3.151-0.184 3.615-0.44 0.919-1.573 0.801-2.088 0.64-0.528-0.261-0.796-0.621-1.107-1.14-0.084-0.14-0.147-0.261-0.169-0.261l-2.433 1.5c0.407 0.84 1 1.563 1.765 2.023 1.14 0.68 2.672 0.9 4.276 0.54 1.044-0.301 1.944-0.921 2.415-1.881 0.68-1.24 0.536-2.76 0.529-4.461 0.016-2.739 0-5.479 0-8.239z"></path>
</symbol>
<symbol id="icon-messenger" viewBox="0 0 32 32">
<path fill="#00b2ff" style="fill: var(--color9, #00b2ff)" d="M0 15.52c0-8.92 6.987-15.52 16-15.52s16 6.6 16 15.52-6.987 15.52-16 15.52c-1.613 0-3.173-0.213-4.627-0.613-0.1-0.028-0.214-0.044-0.333-0.044-0.188 0-0.367 0.041-0.529 0.114l0.008-0.003-3.187 1.4c-0.153 0.070-0.332 0.111-0.521 0.111-0.694 0-1.259-0.553-1.279-1.242l-0-0.002-0.093-2.853c-0.016-0.361-0.177-0.681-0.426-0.906l-0.001-0.001c-3.085-2.791-5.015-6.808-5.015-11.277 0-0.071 0.001-0.143 0.001-0.214l-0 0.011zM11.093 12.6l-4.693 7.467c-0.467 0.707 0.427 1.52 1.093 1l5.053-3.827c0.347-0.267 0.8-0.267 1.16 0l3.733 2.8c1.12 0.84 2.72 0.533 3.467-0.64l4.693-7.467c0.467-0.707-0.427-1.507-1.093-1l-5.053 3.827c-0.333 0.267-0.8 0.267-1.147 0l-3.733-2.8c-0.397-0.303-0.901-0.485-1.447-0.485-0.853 0-1.602 0.445-2.028 1.115l-0.006 0.010z"></path>
</symbol>
<symbol id="icon-twitter" viewBox="0 0 32 32">
<path fill="#1da1f2" style="fill: var(--color10, #1da1f2)" d="M31.939 6.092c-1.18 0.519-2.44 0.872-3.767 1.033 1.352-0.815 2.392-2.099 2.884-3.631-1.268 0.74-2.673 1.279-4.169 1.579-1.195-1.279-2.897-2.079-4.788-2.079-3.623 0-6.56 2.937-6.56 6.556 0 0.52 0.060 1.020 0.169 1.499-5.453-0.257-10.287-2.876-13.521-6.835-0.569 0.963-0.888 2.081-0.888 3.3 0 2.28 1.16 4.284 2.917 5.461-1.076-0.035-2.088-0.331-2.971-0.821v0.081c0 3.18 2.257 5.832 5.261 6.436-0.551 0.148-1.132 0.228-1.728 0.228-0.419 0-0.82-0.040-1.221-0.115 0.841 2.604 3.26 4.503 6.139 4.556-2.24 1.759-5.079 2.807-8.136 2.807-0.52 0-1.039-0.031-1.56-0.089 2.919 1.859 6.357 2.945 10.076 2.945 12.072 0 18.665-9.995 18.665-18.648 0-0.279 0-0.56-0.020-0.84 1.281-0.919 2.4-2.080 3.28-3.397z"></path>
</symbol>
<symbol id="icon-udemy" viewBox="0 0 32 32">
<path fill="#ec5252" style="fill: var(--color11, #ec5252)" d="M31.44 17.84c-0.103-0.088-0.229-0.153-0.367-0.186l-0.006-0.001c-0.8 0.813-1.8 1.667-2.667 2.24-0.413 0.267-0.933 0.4-1.267 0.4-0.787 0-1.12-0.733-1.213-1.92-0.146-1.733-0.23-3.751-0.23-5.788 0-0.229 0.001-0.458 0.003-0.687l-0 0.035c0-3.013-0.693-5.067-2.507-5.227l-0.24-0.013c-1.107 0-1.653 0.573-2.36 2.027-0.613 1.253-1.56 3.067-3.307 6.533-1.438 2.839-2.989 5.277-4.746 7.546l0.079-0.106c-0.413 0.507-0.733 0.853-1.040 1.067-0.164 0.114-0.367 0.183-0.586 0.187h-0.001c-0.573 0-1-0.48-1.133-1.613-0.034-0.264-0.053-0.57-0.053-0.88 0-0.014 0-0.028 0-0.042v0.002c0-2.333 0.88-6.133 2.4-11.707 1.107-4.067 0.64-6.84-1.787-6.84h-0.040c-0.547 0-1 0.213-1.44 0.56-0.44 0.333-0.867 1.080-1.28 2.080-0.453 1.12-3.227 6.707-7.653 9.6-0.053 1.080 0.56 2.173 1.827 2.307 1.133 0.107 1.947-0.373 2.987-1.080l-0.213 0.973c-0.221 0.868-0.454 2.042-0.637 3.232l-0.030 0.235c-0.613 5.6 1.96 8.36 4.987 8.36 0.507 0 1.013-0.067 1.507-0.2 3.333-0.84 6.533-4.68 10.333-13.507-0.027 0.44-0.043 0.953-0.043 1.471 0 0.43 0.011 0.858 0.032 1.282l-0.002-0.060c0.253 5.067 2.24 6.573 5.067 6.573 2.133 0 4.12-1.107 5.133-2.493 0.632-0.798 1.023-1.81 1.053-2.913l0-0.007c-0.027-0.653-0.227-1.173-0.56-1.44z"></path>
</symbol>
</defs>
</svg>
